<?xml version="1.0" encoding="UTF-8"?>
<svg width="80px" height="80px" viewBox="0 0 80 80" version="1.1" xmlns="http://www.w3.org/2000/svg" xmlns:xlink="http://www.w3.org/1999/xlink">
    <title>Group 3</title>
    <g id="Ellibs" stroke="none" stroke-width="1" fill="none" fill-rule="evenodd">
        <g id="e-kirjasto-äänikirja" transform="translate(-141, -962)">
            <g id="Group-3" transform="translate(141, 962)">
                <circle id="Oval-Copy-2" fill="#D9F1EF" cx="40" cy="40" r="40"></circle>
                <g id="rotate-right-solid-copy" transform="translate(40, 40.5) scale(-1, 1) translate(-40, -40.5)translate(24, 25)" fill="#000000" fill-rule="nonzero">
                    <path d="M29.7587414,13.2864916 L30.3449168,13.2864916 C31.2621087,13.2864916 32,12.5461946 32,11.6260124 L32,2.77012303 C32,2.09901266 31.6000216,1.49017027 30.9793653,1.23417972 C30.3587091,0.978189168 29.6484026,1.11656244 29.1725661,1.59395022 L26.3037552,4.47211426 C20.2627014,-1.51252971 10.5321912,-1.49177372 4.52561823,4.5413009 C-1.50853941,10.5951315 -1.50853941,20.4057964 4.52561823,26.459627 C10.5597759,32.5134577 20.3385593,32.5134577 26.372717,26.459627 C27.2347395,25.5947941 27.2347395,24.1903054 26.372717,23.3254725 C25.5106945,22.4606395 24.1107699,22.4606395 23.2487474,23.3254725 C18.9386348,27.6496372 11.9528043,27.6496372 7.64269167,23.3254725 C3.33257906,19.0013077 3.33257906,11.9927015 7.64269167,7.66853683 C11.9321157,3.36512809 18.8627768,3.3443721 23.1797856,7.59935019 L20.3454555,10.4498396 C19.8696191,10.9272274 19.7316955,11.6398497 19.9868542,12.2625294 C20.2420128,12.8852091 20.8488767,13.2864916 21.5178062,13.2864916 L29.7587414,13.2864916 Z" id="Path"></path>
                </g>
            </g>
        </g>
    </g>
</svg>